<?xml version="1.0" encoding="UTF-8"?>
<svg id="Livello_2" data-name="Livello 2" xmlns="http://www.w3.org/2000/svg" width="452.38" height="333.33" viewBox="0 0 452.38 333.33">
  <defs>
    <style>
      .cls-1 {
        fill: #a1a0ee;
      }
    </style>
  </defs>
  <g id="Livello_1-2" data-name="Livello 1">
    <g>
      <path class="cls-1" d="M428.57,71.43v23.81h-23.81v23.81h-23.81v23.81h-23.81v-23.81h-23.81v-23.81h-23.81v-23.81h-23.81v-23.81h-23.81v-23.81h-23.81V0h-23.8v23.81h-23.81v23.81h-23.81v23.81h-23.81v23.81h-23.81v23.81h-23.81v23.81h-23.81v-23.81h-23.81v-23.81h-23.81v-23.81H0v261.9h452.38V71.43h-23.81ZM285.71,142.86v23.81h-23.81v23.81h-23.81v23.81h-23.8v-23.81h-23.81v-23.81h-23.81v-47.62h23.81v-23.81h23.81v23.81h23.8v-23.81h23.81v23.81h23.81v23.81Z"/>
      <polygon class="cls-1" points="261.9 119.05 238.09 119.05 238.09 142.86 214.29 142.86 214.29 119.05 190.48 119.05 190.48 142.86 190.48 166.67 214.29 166.67 214.29 190.48 238.09 190.48 238.09 166.67 261.9 166.67 261.9 142.86 261.9 119.05"/>
    </g>
  </g>
</svg>